<svg clip-rule="evenodd" fill-rule="evenodd" stroke-linejoin="round" stroke-miterlimit="2" viewBox="0 0 50 50" xmlns="http://www.w3.org/2000/svg"><path d="m44.525 13.656c-.003-.373-.229-.555-.405-.771 0 0-8.636-10.25-10.473-12.32-.095-.106-.1-.108-.305-.312-.137-.136-.33-.253-.484-.253-14.034 0-15.745 0-23.596 0-2.091 0-3.79 1.675-3.79 3.739v41.85c0 2.064 1.699 3.739 3.79 3.739h31.475c2.092 0 3.79-1.675 3.79-3.739z" fill="#333f4c" transform="matrix(1 0 0 1.01362 0 -.000361)"/><g fill-rule="nonzero"><g fill="#fff" transform="matrix(.663643 0 0 .673395 11.27232 11.5826)"><path d="m3.971 32.104c.39.016.784.07 1.151.205v-.004l.056.02 4.842-4.723.178.237c.251.34.518.651.8.962l.103.119c.074.074.133.148.207.222l.12.118.117.119.104.103.118.119.104.103.133.119.12.104c2.244 1.91 5.079 2.993 8.025 3.065 2.427.061 4.823-.56 6.915-1.792l.37.385c.43.459.874.918 1.304 1.377-2.574 1.655-5.589 2.496-8.648 2.414-3.451-.082-6.773-1.336-9.418-3.554l.015-.03-3.107 3.063c.11.364.166.741.166 1.121 0 2.125-1.749 3.873-3.873 3.873-2.125 0-3.873-1.748-3.873-3.873s1.748-3.873 3.873-3.873h.1zm29.609-19.977c1.52 2.504 2.286 5.395 2.206 8.323-.087 3.575-1.435 7.006-3.805 9.684l.015.015 1.91 2.029c.77-.104 1.54.162 2.073.725.902.956.862 2.484-.089 3.391-.956.902-2.483.862-3.39-.089-.53-.561-.757-1.345-.608-2.102-1.116-1.193-2.236-2.383-3.36-3.569l-.194-.207.222-.178c.579-.458 1.115-.969 1.6-1.525 2.024-2.272 3.174-5.191 3.243-8.233.064-2.295-.488-4.566-1.6-6.575zm-26.983-9.051c.68-.01 1.32.259 1.794.744.53.561.756 1.346.607 2.103l3.673 3.85-.223.178c-.577.459-1.11.962-1.599 1.525-3.626 4.082-4.292 10.04-1.658 14.822l-1.763 1.718c-1.54-2.512-2.312-5.421-2.22-8.366.076-3.565 1.465-7.009 3.798-9.691l-2.022-2.11c-.767.106-1.54-.165-2.073-.727-.902-.956-.861-2.484.09-3.391.376-.353.855-.577 1.367-.64.076-.008.153-.01.23-.016zm30.901-3.076c2.124 0 3.872 1.749 3.872 3.873 0 2.125-1.748 3.873-3.873 3.873-.41 0-.817-.065-1.207-.193v.005l-.06-.021-5.257 4.99-.178-.237c-.28-.37-.592-.74-.918-1.08l-.06-.075-.162-.163-.296-.296-.104-.089-.103-.088-.133-.119-.104-.089-.134-.118c-2.235-1.882-5.045-2.948-7.966-3.021-2.444-.06-4.828.548-6.9 1.792l-1.689-1.763c2.574-1.655 5.589-2.496 8.648-2.414 3.454.081 6.778 1.341 9.418 3.569h.03l3.48-3.305c-.117-.375-.177-.765-.177-1.158 0-2.125 1.748-3.873 3.873-3.873h.002z"/><path d="m20.617 8.646c.438.002.875.036 1.309.086 6.249.785 10.676 6.486 9.906 12.735-.785 6.25-6.486 10.677-12.735 9.907-6.249-.785-10.677-6.487-9.907-12.735.746-5.797 5.616-9.973 11.427-9.993zm-.171 4.894c-2.53.203-4.36 2.116-4.425 4.659.04 1.766.802 3.013 2.246 3.989l.348.189-.88 4.139h5.901l-.879-4.14c1.62-.834 2.547-2.365 2.593-4.177-.034-2.624-2.064-4.6-4.664-4.665zm.088-.025h-.015z"/></g><path d="m76.4 35.3c-.5-.9-1.5-1.5-2.6-1.5h-15.3l9.2-28.1c.3-.9.1-1.9-.4-2.7s-1.5-1.2-2.4-1.2h-24.2c-1.3 0-2.4.8-2.8 2.1l-16.5 50c-.3.9-.1 1.9.4 2.7.6.8 1.5 1.2 2.4 1.2h18l-2.3 35.2c-.1 1.4.8 2.7 2.2 3.1.3.1.6.1.8.1 1.1 0 2.1-.6 2.6-1.6l31-56.4c.5-.9.5-2-.1-2.9z" fill="#fec136" transform="matrix(.127097 0 0 .127097 32.46645 35.2803)"/></g></svg>